Coordinates
version=1
nRows=17
nColumns=24
inDegrees=yes

Units are S.I. units (second, meters, Newtons, ...)
Angles are in degrees.

endheader
time	pelvis_tilt	pelvis_list	pelvis_rotation	pelvis_tx	pelvis_ty	pelvis_tz	hip_flexion_r	hip_adduction_r	hip_rotation_r	knee_angle_r	ankle_angle_r	subtalar_angle_r	mtp_angle_r	hip_flexion_l	hip_adduction_l	hip_rotation_l	knee_angle_l	ankle_angle_l	subtalar_angle_l	mtp_angle_l	lumbar_extension	lumbar_bending	lumbar_rotation
      2.28000000	     -3.74783847	     -5.36210904	      4.26702339	      0.94594238	      1.29382684	     -0.63682308	     26.58406792	      8.79423497	      5.24202775	    -23.47274574	     -5.84073925	      1.26231123	     16.11977822	     -5.15246426	     -6.75886752	     -4.12615560	    -39.76191368	    -17.07211973	   -350.04968621	    396.89397973	     -9.37641436	      6.70163602	     -5.70513564
      2.28500000	     -3.88698181	     -5.70024097	      4.47766497	      0.95163502	      1.29429347	     -0.63671848	     26.29569635	      9.14699160	      5.20395712	    -23.32524478	     -5.63431648	      0.86805019	     15.79700531	     -3.75102025	     -7.20839680	     -3.57601961	    -41.94182071	    -17.71298697	   -350.77456716	    396.06917081	     -9.25787482	      7.09487196	     -5.56047461
      2.29000000	     -3.98545539	     -6.04711153	      4.67489227	      0.95726007	      1.29477905	     -0.63662380	     25.94532022	      9.50921778	      5.19859012	    -23.14477734	     -5.35098788	      0.53353556	     15.33898632	     -2.40940129	     -7.61497072	     -2.96034251	    -44.07195577	    -17.82639351	   -351.79880018	    395.24001901	     -9.16472747	      7.49924797	     -5.41666007
      2.29500000	     -4.18213616	     -6.31308298	      4.86242468	      0.96279104	      1.29519002	     -0.63665111	     25.78654726	      9.76399594	      5.12737169	    -23.13456372	     -5.06167132	      0.46718485	     14.74171845	     -0.93532035	     -7.87210319	     -2.31984553	    -46.20794858	    -17.33103754	   -352.65791881	    394.72104352	     -8.97390812	      7.80001456	     -5.19062576
      2.30000000	     -4.36143431	     -6.53518380	      5.06231028	      0.96817053	      1.29569663	     -0.63670013	     25.58024782	      9.96346842	      5.07909374	    -23.04826799	     -4.70334724	      0.47435538	     14.30488732	      0.52737654	     -8.02300058	     -1.61807721	    -48.26437866	    -16.56193653	   -353.26326105	    394.20014482	     -8.82558997	      8.06775892	     -5.07308517
      2.30500000	     -4.47888435	     -6.74497690	      5.26712705	      0.97358278	      1.29635901	     -0.63681646	     25.25862967	     10.13570930	      5.00018364	    -22.87052588	     -4.37068853	      0.55239590	     14.13839210	      1.89163765	     -8.13763177	     -0.98763194	    -50.17379984	    -15.81174781	   -353.81836211	    393.57964066	     -8.70692421	      8.32389803	     -4.84389723
      2.31000000	     -4.58379966	     -6.90359208	      5.45118002	      0.97905114	      1.29717306	     -0.63695048	     24.90263259	     10.25301203	      4.90245115	    -22.67790032	     -4.03554906	      0.66086142	     14.00434719	      3.18232174	     -8.17101660	     -0.41651663	    -51.90575097	    -15.24945978	   -354.71819247	    392.98543803	     -8.59662421	      8.52971636	     -4.55174156
      2.31500000	     -4.65002738	     -7.03565237	      5.65732727	      0.98446395	      1.29805505	     -0.63690103	     24.49174149	     10.35559603	      4.78755541	    -22.44453268	     -3.75187332	      0.66509567	     13.88625314	      4.47097205	     -8.21962165	      0.05278997	    -53.61343358	    -14.78081594	   -355.72220938	    392.30828136	     -8.54792645	      8.67272788	     -4.33960812
      2.32000000	     -4.70367750	     -7.11224538	      5.83071092	      0.98980947	      1.29900919	     -0.63683967	     24.05984338	     10.41021604	      4.68120603	    -22.21318980	     -3.49843512	      0.68064013	     13.78314650	      5.72277304	     -8.22087777	      0.42633409	    -55.17096445	    -14.36365825	   -356.81145513	    391.58053557	     -8.51910784	      8.75032372	     -4.15612458
      2.32500000	     -4.76303893	     -7.14801668	      5.97945716	      0.99512723	      1.30002180	     -0.63673324	     23.61790963	     10.43385200	      4.62963888	    -21.95421747	     -3.24157936	      0.73442835	     13.57578524	      6.96781676	     -8.20678829	      0.71940600	    -56.62845581	    -13.93789177	   -357.63382748	    390.99714027	     -8.50846295	      8.78294502	     -4.02419267
      2.33000000	     -4.85323161	     -7.15805211	      6.09868057	      1.00041820	      1.30099363	     -0.63652856	     23.21761678	     10.45055356	      4.65762471	    -21.72148756	     -2.95620095	      0.78940915	     13.32323656	      8.25796090	     -8.18591019	      0.93979711	    -58.04147211	    -13.47562851	   -358.25212269	    390.14420018	     -8.44323217	      8.76325839	     -3.81056634
      2.33500000	     -4.95583223	     -7.18548322	      6.28452403	      1.00561204	      1.30190489	     -0.63637419	     22.82412004	     10.46200819	      4.62785232	    -21.46534574	     -2.77515957	      0.83260333	     12.83951802	      9.59570099	     -8.16319664	      1.21106292	    -59.37263522	    -13.14330530	   -358.86357553	    389.66032892	     -8.37394971	      8.80230437	     -3.80110581
      2.34000000	     -5.14736331	     -7.14056732	      6.39915485	      1.01076885	      1.30280751	     -0.63614371	     22.51059164	     10.41510825	      4.68954482	    -21.19293951	     -2.49035565	      0.94960474	     12.54634811	     10.97758347	     -8.04112416	      1.42323419	    -60.58137387	    -12.74850987	   -359.27707765	    389.27965565	     -8.22799187	      8.69980138	     -3.63972371
      2.34500000	     -5.31056907	     -7.11472806	      6.50879064	      1.01592029	      1.30367901	     -0.63595788	     22.16280018	     10.38085494	      4.68683715	    -20.90287209	     -2.14479465	      1.07248868	     12.43008721	     12.32796604	     -7.91669519	      1.63004762	    -61.73734696	    -12.34301520	   -359.89565156	    389.00030601	     -8.10971019	      8.64356154	     -3.51777240
      2.35000000	     -5.45413461	     -7.07656577	      6.58815738	      1.02111047	      1.30452816	     -0.63572308	     21.81867831	     10.35530054	      4.63925348	    -20.66361108	     -1.83199953	      1.13811598	     12.34186784	     13.62724404	     -7.76038084	      1.83194110	    -62.79840697	    -11.87551971	   -360.33987567	    388.25050616	     -7.98766302	      8.54423634	     -3.33764333
      2.35500000	     -5.58072641	     -7.05907433	      6.56691769	      1.02635435	      1.30546290	     -0.63536680	     21.28881156	     10.40702318	      4.96643379	    -20.11285337	     -1.75096692	      0.86239912	     12.37191474	     14.82142932	     -7.68980557	      1.89438247	    -63.63231688	    -11.32174938	   -360.48662469	    387.96921536	     -7.90235862	      8.47004362	     -3.06405672
      2.36000000	     -5.56653167	     -7.12546957	      6.55188193	      1.03173216	      1.30664741	     -0.63473292	     20.33321703	     10.58731881	      5.65555661	    -19.04397989	     -1.92558764	      0.18534810	     12.29097879	     15.83484493	     -7.78887526	      1.89034216	    -64.35068489	    -10.88056721	   -360.74059247	    387.92774942	     -7.96935424	      8.49727738	     -2.94758536
